<svg width="174" height="194" viewBox="0 0 174 194" fill="none" xmlns="http://www.w3.org/2000/svg">
<path fill-rule="evenodd" clip-rule="evenodd" d="M99.2013 1.72057C98.9289 2.80791 98.0532 3.7116 96.822 4.17732C94.3221 5.12263 94.3762 6.01576 97.0139 7.31779C98.2009 7.9044 99.2844 9.03931 99.4901 9.9113C100.042 12.2544 101.289 12.2267 101.808 9.86042C102.136 8.36417 102.818 7.55164 104.176 7.0377C106.382 6.20403 106.672 4.93305 104.77 4.4343C104.048 4.24537 102.936 3.1719 102.297 2.04955C100.88 -0.446181 99.7736 -0.563768 99.2013 1.72057ZM52.6513 5.39547C52.6407 5.51636 52.0967 7.25041 51.4419 9.24871C50.3116 12.697 50.0432 12.9831 46.1711 14.8638C41.4376 17.1633 41.1765 18.4006 45.1786 19.5613C48.8912 20.638 50.6915 21.6752 50.6915 22.7381C50.6915 24.3057 52.8498 30.3878 53.4064 30.3878C54.1996 30.3878 55.0727 28.4199 55.6036 25.4333C56.0962 22.6661 58.1945 19.8182 59.7415 19.8182C61.09 19.8182 64.5395 17.9012 64.5395 17.1514C64.5395 16.794 62.9457 15.7179 60.9984 14.7614C58.2657 13.4184 57.2495 12.4883 56.5472 10.6888C55.1011 6.98221 54.377 5.73897 53.4941 5.44765C53.041 5.29769 52.6612 5.27392 52.6513 5.39547ZM52.9975 10.2396C52.195 13.2724 51.0054 14.6332 47.8064 16.1777L44.8766 17.592L48.0715 18.834C51.1109 20.0158 51.6819 20.6446 53.138 24.4107C53.7301 25.942 53.8145 25.8601 54.6777 22.931C55.4776 20.2172 55.9425 19.6868 58.4147 18.6688C59.967 18.0293 61.2384 17.3047 61.2397 17.0583C61.2411 16.8125 60.0936 16.103 58.6897 15.4828C56.7174 14.6108 55.8396 13.6608 54.8294 11.3058L53.5217 8.25782L52.9975 10.2396ZM135.999 33.7535C135.587 34.2641 135.031 35.7122 134.761 36.9719C133.989 40.5847 133.073 41.5855 128.619 43.6869C124.163 45.7882 123.907 46.9628 127.707 47.8513C132.835 49.0509 133.517 49.802 135.093 55.9858C135.487 57.5297 136.07 58.7934 136.389 58.7934C136.977 58.7934 138.67 54.5748 139.322 51.4826C139.532 50.4838 140.432 49.438 141.51 48.936C146.783 46.4852 147.628 45.9613 147.628 45.1474C147.628 44.6593 147.29 44.2603 146.876 44.2603C146.462 44.2603 144.87 43.6334 143.338 42.8671C140.982 41.6879 140.26 40.8067 138.65 37.149C137.125 33.6835 136.599 33.009 135.999 33.7535ZM135.38 40.1316C134.693 42.0387 133.829 43.6096 133.46 43.6221C133.092 43.6347 131.688 44.1678 130.341 44.8066L127.891 45.9692L131.126 47.227C134.032 48.3566 134.491 48.8243 135.631 51.8221L136.9 55.1601L137.366 52.4114C137.877 49.4004 138.995 48.0798 142.169 46.7435C144.513 45.7565 144.287 44.9044 141.363 43.7021C139.984 43.1353 138.968 41.9475 138.008 39.7762L136.631 36.6634L135.38 40.1316ZM41.1073 43.8824C40.5659 45.1805 39.7179 46.2421 39.2233 46.2421C38.7287 46.2421 37.9697 46.6695 37.5371 47.192C36.8961 47.9649 37.1091 48.3276 38.6819 49.1427C39.7449 49.693 40.9906 51.0538 41.4508 52.1669C42.1156 53.7748 42.4736 54.0358 43.1924 53.4386C43.6903 53.0244 44.0971 52.1451 44.0971 51.4832C44.0971 50.822 44.9874 49.7538 46.0754 49.1097C48.4876 47.6822 48.5562 47.0612 46.3933 46.2374C45.48 45.89 44.4598 44.8859 44.1262 44.0059C43.1304 41.3834 42.1657 41.3437 41.1073 43.8824ZM12.4279 61.1484C12.0745 62.0805 11.785 65.9516 11.785 69.7513V76.6598L10.3013 75.7277C9.48488 75.2145 7.72288 74.4475 6.38489 74.0227C4.35977 73.38 3.60209 73.4322 1.85855 74.3352C-0.0788632 75.3393 -0.20548 75.6082 0.166439 77.9374C0.387349 79.322 1.55916 82.2115 2.77119 84.3584C5.63643 89.4364 8.84127 96.3132 9.37739 98.5328C10.4542 102.993 12.7181 106.788 16.4221 110.34C19.2992 113.1 20.3576 114.587 20.3576 115.872C20.3576 116.838 20.8027 118.696 21.3467 120C21.8908 121.305 22.3359 122.86 22.3359 123.457C22.3359 124.86 24.6927 129.268 26.7679 131.746C27.6608 132.812 30.8122 135.808 33.7711 138.402C36.7306 140.995 40.041 144.433 41.1277 146.041C42.2151 147.649 43.2603 149.113 43.4509 149.295C44.2369 150.043 46.2957 153.629 49.7946 160.343L53.4987 167.451L53.4545 174.91C53.4261 179.713 53.0285 183.682 52.3394 186.058C51.7505 188.086 51.4149 190.126 51.5929 190.591C52.8392 193.846 71.8672 195.122 77.806 192.35C79.481 191.568 81.2159 190.487 81.6624 189.949C82.5579 188.868 82.2815 185.554 80.5637 176.762C79.3787 170.698 79.6762 153.134 81.0807 146.175C81.8239 142.495 81.7777 141.672 80.6442 138.329C79.9472 136.275 79.0062 134.451 78.5525 134.277C78.0994 134.103 77.7282 133.676 77.7282 133.328C77.7282 132.981 75.5883 130.48 72.9724 127.771C70.357 125.061 67.6573 121.958 66.9728 120.876C66.289 119.793 65.4614 118.908 65.1344 118.908C64.8073 118.908 64.5395 118.579 64.5395 118.177C64.5395 117.547 63.6592 116.286 60.573 112.494C60.2156 112.056 59.9235 111.523 59.9235 111.312C59.9235 110.676 57.0174 106.726 56.1318 106.158C55.6788 105.867 55.2976 105.273 55.2857 104.837C55.2495 103.518 50.5398 99.4015 47.6337 98.1497C45.0685 97.0445 44.7678 97.0405 42.5831 98.079C39.0011 99.782 38.6232 103.95 41.6058 108.868C42.3332 110.068 42.7466 111.233 42.5237 111.455C42.3009 111.679 42.1189 111.514 42.1189 111.091C42.1189 110.667 41.6882 110.32 41.1627 110.32C40.6364 110.32 39.9691 109.941 39.6789 109.478C39.2134 108.735 36.3844 106.647 34.5354 105.682C29.5949 103.102 26.9519 100.18 26.9519 97.2962C26.9519 96.6369 26.3894 95.0469 25.7023 93.762C23.6811 89.984 23.7814 80.4662 25.8573 79.1457C26.2516 78.8946 26.5853 76.9399 26.5985 74.8023C26.6202 71.2833 26.4198 70.7125 24.479 68.767C23.3 67.5859 22.3359 66.0573 22.3359 65.3716C22.3359 64.6852 21.4147 63.0734 20.289 61.7892C18.6002 59.8616 17.7911 59.454 15.6572 59.454C13.4883 59.454 12.9673 59.7275 12.4279 61.1484ZM154.234 60.7652C151.093 63.4942 150.633 65.1952 150.751 73.6568C150.824 78.9481 150.543 82.6673 149.904 84.842C149.377 86.6335 148.947 88.8914 148.947 89.8599C148.947 90.8283 148.461 92.5947 147.869 93.7858C147.275 94.9768 146.442 97.318 146.016 98.9886C145.337 101.657 144.807 102.287 141.655 104.175C137.31 106.777 136.154 107.568 133.883 109.493C132.92 110.311 131.931 110.979 131.686 110.98C131.442 110.98 132.014 109.186 132.959 106.992C135.006 102.239 134.609 100.172 131.273 98.2203C129.207 97.0115 128.969 97.0029 126.23 98.0506C122.049 99.6505 120.87 100.916 113.101 112.136C111.781 114.044 109.703 117.029 108.484 118.769C107.265 120.51 104.119 124.151 101.491 126.861C95.8098 132.721 93.6231 135.821 92.8971 139.047C92.5858 140.428 92.7388 146.497 93.2598 153.457C94.0208 163.634 94.0201 166.798 93.2532 174.067C92.7553 178.791 91.9871 184.081 91.5466 185.823C90.626 189.462 90.9181 189.875 96.1923 192.384C100.261 194.32 111.773 194.439 117.814 192.606C122.505 191.183 122.392 191.524 120.911 183.316C119.662 176.39 119.679 169.907 120.955 166.716C124.981 156.644 132.874 144.352 138.066 140.064C139.154 139.166 142.046 136.444 144.492 134.017C149.35 129.196 150.985 126.125 152.665 118.665C153.611 114.468 154.1 113.584 157.136 110.576C161.136 106.614 162.418 104.781 163.349 101.689C164.782 96.9362 166.14 93.764 170.004 86.1453C172.199 81.8197 173.997 77.6197 174 76.8118C174.003 75.8367 173.325 74.9899 171.985 74.2956C170.135 73.3377 169.688 73.3403 166.717 74.3286C164.931 74.9231 163.301 75.6841 163.094 76.0191C161.961 77.8555 161.475 75.9187 161.467 69.5281C161.455 60.0069 161.276 59.454 158.203 59.454C156.696 59.454 155.159 59.962 154.234 60.7652ZM14.5876 61.266C13.5898 61.6049 13.394 79.6259 14.3812 80.237C15.979 81.2259 19.4278 90.3243 20.1182 95.3712C20.4822 98.0294 20.7539 98.3848 23.1444 99.3249L25.7702 100.359L25.3231 97.9072C25.0771 96.5596 24.4995 94.8619 24.0385 94.1352C23.5783 93.4086 23.0085 91.1421 22.7724 89.0989C22.537 87.0556 21.9138 84.5539 21.3889 83.5393C20.6491 82.1117 20.5119 79.9675 20.7796 74.0426C21.0836 67.3157 20.9722 66.1141 19.8558 64.1092C18.6371 61.9206 16.3291 60.6754 14.5876 61.266ZM156.53 61.3994C155.805 61.6974 154.618 62.603 153.893 63.4129C152.722 64.7196 152.568 65.8617 152.519 73.5649C152.481 79.5011 152.117 83.4891 151.365 86.1816C150.76 88.3471 150.264 90.7252 150.262 91.4664C150.259 92.2076 149.825 93.6444 149.297 94.6584C148.769 95.6731 148.177 97.6053 147.981 98.9523C147.786 100.3 147.794 101.047 147.999 100.613C148.204 100.18 149.375 99.4933 150.599 99.0884C152.979 98.3016 153.707 96.8668 154.577 91.2511C155.072 88.0538 157.042 83.1826 158.928 80.4913C159.927 79.0657 160.156 77.5193 160.15 72.2339C160.141 64.6027 159.615 60.7586 158.587 60.8168C158.182 60.8399 157.256 61.1022 156.53 61.3994ZM22.7599 74.0815C22.5265 76.3163 22.3458 79.067 22.3583 80.1947L22.3807 82.2445L23.6548 79.6021C25.1424 76.5172 25.3666 71.8335 24.0788 70.7627C23.3475 70.1543 23.1061 70.7614 22.7599 74.0815ZM2.33334 75.7489C1.41607 76.6671 1.96208 79.0664 3.8863 82.5748C5.68127 85.8474 7.58241 89.7674 10.1351 95.4564C10.6237 96.5464 11.237 98.33 11.4981 99.42C12.3844 103.124 14.2855 106.018 18.4795 110.046C24.7085 116.029 34.5169 130.046 33.3168 131.248C33.0207 131.545 32.4325 131.273 32.0084 130.646C26.4019 122.337 22.6465 117.055 22.4717 117.23C22.1137 117.588 25.1339 127.054 25.9054 127.995C27.2467 129.628 32.6633 135.081 36.9027 139.064C41.9599 143.817 47.0323 151.102 51.8006 160.46L55.3075 167.343L55.2785 174.008C55.2626 177.674 54.9481 182.011 54.5788 183.646C53.103 190.183 53.0628 189.844 55.4275 190.888C56.9699 191.57 60.1457 191.862 66.1881 191.879C73.3515 191.899 75.2283 191.689 77.6062 190.601L80.451 189.299L80.0105 184.326C79.7685 181.59 79.1559 177.123 78.6494 174.398C77.4849 168.132 77.5086 161.341 78.7252 152.928C80.5848 140.074 80.0435 137.668 73.9147 131.537C70.8009 128.423 64.831 121.4 63.2207 118.956C62.6766 118.131 61.1929 116.028 59.9235 114.283C58.6541 112.539 57.1704 110.446 56.6264 109.633C52.0011 102.72 47.8381 99.0897 44.537 99.0897C41.6619 99.0897 40.4544 103.438 42.3358 107.017C43.9521 110.092 45.0843 111.97 45.5248 112.306C45.7655 112.49 47.0263 114.647 48.3254 117.101C50.6413 121.475 51.219 123.158 52.6849 129.807C53.0852 131.624 53.7097 134.075 54.0717 135.253C54.7226 137.371 54.3685 139.039 53.3964 138.437C53.1208 138.266 52.5155 136.403 52.0512 134.297C50.7 128.167 48.6294 121.376 47.4741 119.288C45.689 116.062 38.8857 110.304 32.5571 106.665C30.7436 105.622 29.1116 104.605 28.9302 104.406C28.5754 104.017 22.3009 100.585 19.8683 99.4497C18.7268 98.9166 18.3885 98.1992 18.3846 96.3053C18.374 91.3997 14.3739 81.9796 11.0115 78.9415C7.36282 75.6452 3.75969 74.32 2.33334 75.7489ZM165.819 76.4035C163.047 77.907 160.229 81.1374 158.706 84.5566C157.198 87.9448 154.882 95.8481 154.882 97.6086C154.882 98.3439 153.705 99.4028 151.749 100.425C150.026 101.325 148.518 102.285 148.398 102.558C148.276 102.831 147.845 103.053 147.438 103.053C146.527 103.053 135.267 110.136 133.45 111.852C132.725 112.537 131.152 113.856 129.955 114.784C126.001 117.852 123.848 122.937 121.718 134.243C121.037 137.86 119.272 140.144 119.272 137.408C119.272 135.946 121.783 125.185 122.587 123.201C124.065 119.555 126.89 114.139 129.479 109.99C132.646 104.913 133.186 101.934 131.255 100.183C129.685 98.7601 128.352 98.8037 125.269 100.379C122.706 101.689 121.192 103.545 112.07 116.553C109.378 120.391 106.93 123.532 106.63 123.532C106.33 123.532 106.084 123.848 106.084 124.235C106.084 124.622 104.67 126.331 102.942 128.034C101.213 129.736 98.617 132.59 97.1715 134.378L94.5437 137.627L94.8734 146.599C95.4761 163.006 95.1372 176.368 93.9799 181.802C93.3831 184.602 92.8951 187.346 92.8951 187.899C92.8951 189.845 98.0993 191.789 104.127 192.096C109.875 192.388 118.354 191.436 119.408 190.381C119.75 190.038 119.672 187.617 119.222 184.573C117.086 170.112 117.373 168.646 125.139 154.249C128.986 147.119 132.991 142.373 142.874 133.23C147.172 129.254 149.606 125.016 150.542 119.879L151.019 117.256L149.38 119.568C148.479 120.84 147.271 122.401 146.696 123.036C146.121 123.672 145.65 124.353 145.65 124.549C145.65 124.929 143.318 128.386 141.78 130.287C140.151 132.301 139.733 130.845 141.21 128.303C141.996 126.95 142.871 125.745 143.155 125.624C143.439 125.502 143.671 125.113 143.671 124.758C143.671 124.156 145.864 121.049 150.117 115.624C151.106 114.364 153.882 111.333 156.288 108.89C160.166 104.951 160.853 103.85 162.366 99.1518C163.304 96.2386 164.353 93.3234 164.697 92.674C165.042 92.0246 166.056 90.0065 166.952 88.1899C167.848 86.3732 169.356 83.4303 170.304 81.6506C171.251 79.871 172.027 77.7155 172.027 76.8613C172.027 75.5441 171.701 75.3122 169.884 75.3347C168.705 75.3492 166.876 75.8301 165.819 76.4035ZM124.664 78.7592C124.237 79.1866 123.888 79.9985 123.888 80.564C123.888 81.1294 122.998 81.9862 121.91 82.4691C119.418 83.5736 119.4 84.4707 121.852 85.3975C123.164 85.8936 123.89 86.7128 124.144 87.9824C124.631 90.4233 126.307 90.3659 126.849 87.8893C127.112 86.6883 127.831 85.7648 128.715 85.4887C129.506 85.241 130.349 84.7336 130.588 84.3604C131.06 83.6232 129.668 81.9142 128.596 81.9142C128.232 81.9142 127.754 81.3468 127.534 80.6525C126.919 78.7123 125.588 77.8337 124.664 78.7592ZM79.5713 104.864C79.0952 105.859 77.8917 107.065 76.898 107.542C74.5583 108.666 74.6196 109.211 77.2151 110.366C78.5089 110.941 79.4836 111.938 79.7065 112.913C80.265 115.358 81.4744 115.272 82.3119 112.73C82.8203 111.187 83.5879 110.317 84.6825 110.041C86.7044 109.532 86.7723 108.199 84.8197 107.339C84.0053 106.98 82.9509 105.869 82.4761 104.87C81.3867 102.578 80.666 102.576 79.5713 104.864Z" fill="black"/>
<path d="M84.0614 79.026C85.6345 79.291 87.1245 78.2306 87.3894 76.6575C87.6544 75.0844 86.594 73.5944 85.0209 73.3294C83.4478 73.0645 81.9578 74.1249 81.6928 75.698C81.4279 77.2711 82.4883 78.7611 84.0614 79.026Z" fill="black"/>
<path d="M96.086 89.8388L69.1582 85.3031C67.3891 84.8955 65.8526 83.8058 64.8829 82.2711C63.9132 80.7364 63.5888 78.8808 63.9802 77.1081L71.1163 34.7425C71.3272 32.9394 72.2415 31.2925 73.6605 30.1601C75.0794 29.0277 76.8881 28.5015 78.6931 28.6959L105.621 33.2316C107.39 33.6392 108.926 34.7289 109.896 36.2636C110.866 37.7983 111.19 39.6539 110.799 41.4266L103.663 83.7923C103.452 85.5954 102.538 87.2422 101.119 88.3746C99.6997 89.507 97.891 90.0332 96.086 89.8388ZM78.2133 31.5442C77.1647 31.4795 76.1325 31.8284 75.3382 32.516C74.5439 33.2036 74.0508 34.1752 73.9646 35.2222L66.8285 77.5879C66.5669 78.6054 66.7146 79.6849 67.2398 80.5948C67.7651 81.5047 68.626 82.1724 69.6379 82.4548L96.5658 86.9905C97.6144 87.0552 98.6466 86.7063 99.4409 86.0187C100.235 85.3311 100.728 84.3595 100.815 83.3125L107.951 40.9468C108.212 39.9293 108.065 38.8498 107.539 37.9399C107.014 37.03 106.153 36.3623 105.141 36.0799L78.2133 31.5442Z" fill="black"/>
<path d="M96.0592 44.0287L98.3618 47.3931L94.9975 49.6957L92.6949 46.3314L96.0592 44.0287ZM88.2998 43.0725L87.5494 47.0774L83.5445 46.3271L84.2948 42.3222L88.2998 43.0725ZM96.4363 54.9606L95.6859 58.9655L91.681 58.2152L92.4313 54.2102L96.4363 54.9606ZM86.424 53.0848L85.6737 57.0897L81.6687 56.3394L82.4191 52.3345L86.424 53.0848ZM96.5901 41.1953L89.8633 45.7905L94.4685 52.5192L101.197 47.9139L96.5901 41.1953ZM90.6774 41.4452L82.6675 39.9445L81.1669 47.9544L89.1767 49.455L90.6774 41.4452ZM98.8139 53.3333L90.804 51.8326L89.3034 59.8425L97.3132 61.3431L98.8139 53.3333ZM88.8016 51.4575L80.7918 49.9568L79.2911 57.9667L87.301 59.4673L88.8016 51.4575Z" fill="black"/>
</svg>
